<?xml version="1.0" standalone="no"?><!DOCTYPE svg PUBLIC "-//W3C//DTD SVG 1.1//EN" "http://www.w3.org/Graphics/SVG/1.1/DTD/svg11.dtd"><svg class="icon" height="512" viewBox="0 0 1024 1024" version="1.1" xmlns="http://www.w3.org/2000/svg"><path d="M295.107609 696.801318c-1.043456-1.423872-1.841152-2.4576-2.578944-3.5328-5.420543-7.878655-11.168767-15.55763-16.179198-23.688701-17.355774-28.162045-29.303805-58.623993-37.572604-90.570229-6.439423-24.880125-10.524159-50.148858-12.223999-75.808247-0.754176-11.394559-0.845824-22.777853-0.816128-34.1975 0.174592-67.663864 0.146432-135.32824 0.034816-202.990568-0.021504-13.380606 1.625088-26.513405 4.561407-39.496699 9.428991-41.689083 30.023165-77.254135 59.728889-107.681267 22.139901-22.678013 47.80441-40.454139 76.414967-54.030842C404.618253 46.704242 444.917768 37.700723 486.992387 36.449395c18.759678-0.558592 37.439996 0.74752 56.005113 3.65568 37.444604 5.865983 72.598008 18.141694 105.083892 37.7175 36.515836 22.003197 66.4494 50.74073 87.917558 87.794678 18.969086 32.740348 28.843517 67.939832 28.685309 106.001396-0.267776 64.604664-0.0768 129.212913-0.06144 193.819113 0 2.253312 0.084992 4.518399 0.309248 6.759935 0.664576 6.633983 4.212736 11.471359 10.012159 14.402558 5.097983 2.575872 10.464255 4.559871 16.426494 3.999744 2.371584-0.22272 4.782591-0.006656 7.175679-0.043008 12.666367-0.190976 24.466429-3.358208 34.885628-10.720255 13.231102-9.349119 20.36531-21.895677 20.32179-38.458364-0.131072-49.84985-0.06144-99.701236-0.03328-149.551087 0.00512-8.069631-2.110464-15.51923-6.406143-22.285821-8.229375-12.963326-20.391422-20.241918-35.091452-23.574013-4.098048-0.928768-8.320511-1.309696-12.604415-1.959424-0.384-2.849792-0.716288-5.608447-1.133568-8.353791-5.808127-38.212092-19.788286-73.214455-41.677307-105.015796-30.036477-43.638267-69.711352-75.967991-117.356018-98.606069-47.740922-22.684669-98.175989-33.035772-151.015406-31.955964-13.973502 0.285696-27.854333 1.324544-41.687035 3.25888-40.427515 5.649919-78.595063 18.151422-114.246643 38.05286-41.921531 23.400957-76.752375 54.599162-102.994932 95.010293-19.135486 29.466621-31.756284 61.502457-37.298684 96.256501-0.61952 3.88352-1.2032 7.772159-1.801216 11.640831-7.316991 0.495104-14.108158 1.595392-20.63923 4.027904-18.02035 6.711807-33.914876 22.472189-33.587708 47.654394 0.62464 47.848954 0.179712 95.711733 0.18432 143.567343 0 1.859584 0.036352 3.720704 0.106496 5.580287 0.285696 7.625727 2.593792 14.631934 6.776831 20.969982 8.044543 12.192255 19.713534 19.065342 33.659388 22.375933 3.840512 0.912384 7.795199 1.349632 12.009471 2.05568 1.751552 40.681979 8.164351 80.547831 20.57267 119.359986 12.433407 38.892027 30.277628 75.010551 55.529978 107.437043-1.271296 1.0368-2.276864 1.881088-3.307008 2.692096-32.346108 25.410557-60.071417 55.119354-82.93887 89.320438-28.264957 42.275323-47.339002 88.379894-57.246201 138.252784-2.796544 14.076926-5.008383 28.267005-5.792767 42.611195-0.86272 15.77523 10.713599 29.009917 26.375677 30.511612 2.374656 0.22784 4.772863 0.27904 7.160831 0.27904 230.509541 0.011776 461.017034 0.011776 691.526575 0.011776 1.462272 0 2.924544 0.021504 4.386815-0.011776 7.601151-0.177664 14.284798-2.624 19.883006-7.900159 7.660543-7.220223 10.216447-16.134142 9.247743-26.410493-1.886208-19.99923-4.912127-39.811067-9.855999-59.288569-18.078206-71.231992-53.721594-132.253681-106.777076-183.082475-31.093244-29.787133-66.333176-53.489146-105.529332-71.291896-47.079931-21.382142-96.552437-32.414716-148.185071-33.659388-27.311101-0.65792-54.414842 1.728-81.240567 7.002623-44.376059 8.724479-85.872118 24.856573-124.485106 48.40089-0.997376 0.608256-1.935872 1.311232-3.082752 2.093568 36.178428 44.997627 82.586614 71.393272 139.110384 80.012791 0.463872-0.704512 0.656384-0.904192 0.739328-1.14176 0.3072-0.87552 0.588288-1.76128 0.864256-2.649088 2.745344-8.854015 6.810111-17.003006 12.873727-24.082429 9.151487-10.685439 20.484606-16.424958 34.83238-16.30515 25.255933 0.210944 50.514426 0.046592 75.771895 0.079872 2.515968 0.003072 5.045247 0.173056 7.546367 0.466944 24.015869 2.829824 42.102779 23.138813 42.169339 47.322106 0.026624 9.438719 0.054784 18.87795-0.026624 28.315133-0.023552 2.778624-0.154624 5.604863-0.684544 8.323583-4.473343 22.984189-23.889917 38.926843-47.295482 38.933499-26.454013 0.008192-52.907514-0.048128-79.361527 0.02304-13.168126 0.034816-23.958013-5.186559-32.934396-14.498814-6.798335-7.052799-11.005951-15.595518-13.521918-24.968189-0.611328-2.279936-1.633792-3.165696-3.94496-3.600896-10.171903-1.909248-20.42163-3.591168-30.420476-6.206975-48.224762-12.617727-88.966134-37.73542-122.660338-74.372599-4.380159-4.762623-8.491519-9.771007-13.00019-14.980606C275.327516 710.515749 285.01353 703.800869 295.107609 696.801318zM494.593026 560.323126c117.432306 0.664576 214.573031-93.989877 216.347623-212.437479 1.806336-120.498674-94.699509-217.672167-212.791783-219.24247-120.270834-1.598464-216.680423 94.587893-218.931686 211.503591C276.872731 461.966401 375.28936 560.520758 494.593026 560.323126z" /></svg>